<?xml version="1.0" encoding="UTF-8"?>
<!DOCTYPE svg PUBLIC "-//W3C//DTD SVG 1.1//EN" "http://www.w3.org/Graphics/SVG/1.1/DTD/svg11.dtd">
<!-- Creator: CorelDRAW -->
<svg xmlns="http://www.w3.org/2000/svg" xml:space="preserve" width="1.70666in" height="1.70666in" version="1.1" style="shape-rendering:geometricPrecision; text-rendering:geometricPrecision; image-rendering:optimizeQuality; fill-rule:evenodd; clip-rule:evenodd"
viewBox="0 0 1707 1707"
 xmlns:xlink="http://www.w3.org/1999/xlink">
 <defs>
  <style type="text/css">
   <![CDATA[
    .fil0 {fill:black}
   ]]>
  </style>
 </defs>
 <g id="Layer_x0020_1">
  <metadata id="CorelCorpID_0Corel-Layer"/>
  <path class="fil0" d="M988 1700l-875 0c-13,0 -24,-11 -24,-24l0 -87c0,-60 50,-110 111,-110l701 0c60,0 110,50 110,110l0 87c0,13 -10,24 -23,24z"/>
  <path class="fil0" d="M232 1452l0 -37c0,-61 49,-110 110,-110l416 0c61,0 110,49 110,110l0 37 -636 0z"/>
  <path class="fil0" d="M588 632c68,-151 209,-291 359,-360 4,14 12,27 22,38l187 187c11,10 24,18 38,22 -69,150 -209,291 -360,359 -4,-13 -11,-26 -22,-37l-187 -187c-11,-11 -24,-18 -37,-22zm214 45c4,0 7,-1 10,-3l177 -178c5,-5 5,-13 0,-19 -5,-5 -14,-5 -19,0l-177 178c-6,5 -6,13 0,19 2,2 6,3 9,3z"/>
  <path class="fil0" d="M491 707l34 -34c23,-23 59,-23 81,0l187 187c23,22 23,58 0,81l-34 34 -268 -268z"/>
  <polygon class="fil0" points="356,781 356,781 "/>
  <polygon class="fil0" points="1004,227 1004,227 "/>
  <path class="fil0" d="M1215 495c-15,0 -29,-6 -40,-17l-187 -187c-11,-11 -17,-25 -17,-40 0,-16 6,-30 17,-41l34 -34 268 268 -34 34c-11,11 -25,17 -41,17z"/>
  <path class="fil0" d="M1356 448c-15,0 -30,-6 -41,-17l-281 -280c-10,-11 -16,-26 -16,-41 0,-16 6,-30 16,-41l45 -45 0 0c23,-23 59,-23 81,0l282 281c22,23 22,59 0,81l-45 45c-11,11 -25,17 -41,17z"/>
  <path class="fil0" d="M661 1144c-16,0 -30,-6 -41,-17l-281 -281c-11,-11 -17,-25 -17,-41 0,-16 6,-30 17,-41l45 -45 0 0c23,-22 59,-22 81,0l282 282c22,22 22,58 0,81l-45 45c-11,11 -25,17 -41,17z"/>
  <path class="fil0" d="M981 930c-32,0 -65,-12 -90,-37l-8 -9c129,-69 247,-187 316,-317l9 9c50,50 50,131 0,181l-136 136c-25,25 -58,37 -91,37z"/>
  <path class="fil0" d="M1587 1391c-32,0 -62,-12 -84,-35l-430 -429c6,-5 12,-10 18,-15l136 -136c5,-6 10,-12 15,-18l430 429c46,47 46,123 0,169 -23,23 -53,35 -85,35z"/>
  <path class="fil0" d="M272 1185c-4,0 -8,-1 -12,-4l-151 -87c-11,-6 -15,-21 -9,-32 6,-11 21,-15 32,-8l151 87c12,6 15,21 9,32 -4,7 -12,12 -20,12z"/>
  <path class="fil0" d="M325 1069c-8,0 -16,-4 -20,-12l-88 -151c-6,-12 -2,-26 9,-32 11,-7 25,-3 32,8l87 152c7,11 3,25 -8,32 -4,2 -8,3 -12,3z"/>
  <path class="fil0" d="M198 1289l-175 0c-13,0 -23,-11 -23,-24 0,-12 10,-23 23,-23l175 0c13,0 24,10 24,23 0,13 -11,24 -24,24z"/>
 </g>
</svg>
